<svg id="visual" viewBox="0 0 900 600" width="900" height="600" xmlns="http://www.w3.org/2000/svg" xmlns:xlink="http://www.w3.org/1999/xlink" version="1.1"><rect x="0" y="0" width="900" height="600" fill="#002233"></rect><path d="M373 600L393.5 585.7C414 571.3 455 542.7 467.7 514.2C480.3 485.7 464.7 457.3 450.7 428.8C436.7 400.3 424.3 371.7 438.8 343C453.3 314.3 494.7 285.7 490.3 257C486 228.3 436 199.7 409.2 171.2C382.3 142.7 378.7 114.3 394.3 85.8C410 57.3 445 28.7 462.5 14.3L480 0L900 0L900 14.3C900 28.7 900 57.3 900 85.8C900 114.3 900 142.7 900 171.2C900 199.7 900 228.3 900 257C900 285.7 900 314.3 900 343C900 371.7 900 400.3 900 428.8C900 457.3 900 485.7 900 514.2C900 542.7 900 571.3 900 585.7L900 600Z" fill="#0066FF" stroke-linecap="round" stroke-linejoin="miter"></path></svg>